<?xml version="1.0" encoding="utf-8"?>
<!-- Generator: Adobe Illustrator 16.0.0, SVG Export Plug-In . SVG Version: 6.00 Build 0)  -->
<!DOCTYPE svg PUBLIC "-//W3C//DTD SVG 1.1//EN" "http://www.w3.org/Graphics/SVG/1.1/DTD/svg11.dtd">
<svg version="1.1" id="Layer_1" xmlns="http://www.w3.org/2000/svg" xmlns:xlink="http://www.w3.org/1999/xlink" x="0px" y="0px"
	 width="512px" height="512px" viewBox="0 0 512 512" enable-background="new 0 0 512 512" xml:space="preserve">
<rect fill="#5C829A" width="512" height="512"/>
<g opacity="0.35">
	<path fill="#023334" stroke="#000000" stroke-width="0.5" stroke-miterlimit="10" d="M367.146,244.092l27.96-22.858l-36.621-44.859
		c0,0-34.646-34.645-77.171-9.449l-41.729,22.838c0,0-6.038,4.069-8.664-1.58c0,0-6.692-8.004-25.202-4.983l1.58-72.776
		c0,0,14.96-5.312,4.917-17.916c0,0-7.082-6.299-15.551,0c0,0-9.446,7.681,3.15,17.332l-1.376,75.394c0,0-9.056,1.178-15.553,8.466
		l-42.326-16.737c0,0-3.543-13.429-15.158-10.059c-11.612,3.37-10.235,20.101,5.909,19.705c0,0,3.145-0.59,7.477-3.54l38.782,15.943
		c0,0-9.842,10.826-4.134,22.443c0,0,1.574,2.56-1.97,3.739c-3.54,1.184-47.835,25.59-47.835,25.59s-40.353,25.202-11.222,68.509
		c29.138,43.31,58.665,78.351,58.665,78.351s28.741,42.52,83.866,13.386c55.115-29.133,112.734-63.018,112.734-63.018l-21.391-31.08
		l-85.045,46.856c0,0-23.233,8.265-32.68-8.274c-9.45-16.534-50.001-66.536-50.001-66.536s-12.208-18.898,6.692-28.348
		c18.899-9.45,119.293-63.786,119.293-63.786s18.506-11.024,33.077,6.694C352.181,221.258,367.146,244.092,367.146,244.092z"/>
	<g>
		<path fill="#F9AD3B" d="M173.717,311.483l-17.428,4.7l2.618-9.662C158.907,306.521,167.361,304.375,173.717,311.483z"/>
		<path fill="#646561" d="M157.833,306.878l-4.439,17.104l-6.863-7.019C146.53,316.964,148.794,308.834,157.833,306.878z"/>
		<path fill="#0F84A8" d="M146.198,318.185l12.576,12.601l-9.552,2.516C149.222,333.301,143.236,327.117,146.198,318.185z"/>
		<path fill="#84C342" d="M150.173,333.963l16.759-4.652l-2.426,9.309C164.506,338.619,156.346,340.744,150.173,333.963z"/>
		<path fill="#EE5C82" d="M165.412,338.184l4.548-17.239l6.982,6.961C176.942,327.905,174.601,336.226,165.412,338.184z"/>
		<path fill="#7B519F" d="M177.41,327.169l-12.453-12.309l9.249-2.669C174.205,312.191,180.404,318.142,177.41,327.169z"/>
	</g>
	<g>
		<path fill="#F9AD3B" d="M200.207,345.91l-17.424,4.697l2.611-9.662C185.394,340.945,193.849,338.801,200.207,345.91z"/>
		<path fill="#646561" d="M184.327,341.305l-4.444,17.101l-6.862-7.019C173.021,351.387,175.284,343.256,184.327,341.305z"/>
		<path fill="#0F84A8" d="M172.688,352.607l12.577,12.603l-9.552,2.51C175.713,367.72,169.729,361.541,172.688,352.607z"/>
		<path fill="#84C342" d="M176.663,368.389l16.759-4.663L191,373.041C191,373.041,182.836,375.16,176.663,368.389z"/>
		<path fill="#EE5C82" d="M191.905,372.6l4.548-17.231l6.982,6.964C203.436,362.332,201.092,370.647,191.905,372.6z"/>
		<path fill="#7B519F" d="M203.9,361.589l-12.451-12.311l9.25-2.661C200.699,346.617,206.896,352.563,203.9,361.589z"/>
	</g>
</g>
<g>
	<path fill="#023334" stroke="#000000" stroke-width="1.5" stroke-miterlimit="10" d="M38.5,346.34
		c-1.837,0-4.041,3.138-4.041-58.812c0-81.611,3.82-78.637,5.069-78.637h6.759c2.866,0,3.895,0,7.495,11.068
		c6.906,21.311,7.348,33.371,8.816,33.371c1.103,0,1.543-12.06,9.331-33.371c4.115-11.233,5.216-11.068,8.082-11.068h5.731
		c1.25,0,5.069-2.974,5.069,78.637c0,61.949-2.205,58.812-4.041,58.812h-9.404c-0.882,0-2.645,0.495-2.645-2.479
		c0-2.313,4.187-32.049,4.187-75.167c0-3.469,0.221-23.789-2.204-23.789c-2.13,0-4.922,16.354-5.657,20.32
		c-6.172,33.866-3.673,49.396-8.597,49.396c-6.171,0-3.747-15.529-10.286-49.396c-0.734-3.635-3.159-20.32-5.436-20.32
		c-2.425,0-2.352,20.32-2.352,23.789c0,43.118,4.629,72.854,4.629,75.167c0,2.974-1.763,2.479-2.645,2.479H38.5z"/>
	<path fill="#023334" stroke="#000000" stroke-width="1.5" stroke-miterlimit="10" d="M96.027,293.31
		c0-26.598,5.657-55.177,18.442-55.177c12.784,0,18.441,28.58,18.441,55.177c0,38.821-9.992,55.507-18.441,55.507
		C106.02,348.816,96.027,332.131,96.027,293.31z M123.8,289.18c0-13.051-2.058-31.554-9.331-31.554
		c-7.274,0-9.332,18.503-9.332,31.554c0,13.216,1.911,32.049,9.332,32.049C121.89,321.229,123.8,302.396,123.8,289.18z"/>
	<path fill="#023334" stroke="#000000" stroke-width="1.5" stroke-miterlimit="10" d="M167.734,240.61c2.572,0,3.086,0,3.086,9.417
		c0,69.384-15.944,98.79-18.368,98.79c-1.69,0-16.458-27.753-16.458-103.085c0-4.791,0.294-5.121,2.278-5.121h5.657
		c1.029,0,3.16-0.826,3.16,2.643c0,3.799-0.367,7.269-0.367,14.538c0,40.641,5.363,56.664,7.053,56.664
		c2.571,0,7.347-22.633,7.347-54.847c0-5.782-0.441-10.408-0.441-15.529c0-3.799,0.734-3.469,2.204-3.469H167.734z"/>
	<path fill="#023334" stroke="#000000" stroke-width="1.5" stroke-miterlimit="10" d="M179.636,346.34
		c-3.6,0-3.893,3.469-3.893-54.683c0-56.499,1.175-51.047,3.599-51.047h4.041c3.086,0,3.16,0.495,3.16,2.478
		c0,6.112-0.882,12.225-0.882,30.232c0,41.63,2.865,67.236,2.865,68.724c0,5.286-2.204,4.296-3.895,4.296H179.636z"/>
	<path fill="#023334" stroke="#000000" stroke-width="1.5" stroke-miterlimit="10" d="M193.448,297.936
		c0-39.979,9.845-59.803,19.69-59.803c8.082,0,14.915,10.243,14.915,29.736c0,35.519-23.658,28.085-23.658,45.265
		c0,7.766,5.583,13.382,9.258,13.382c12.049,0,12.049-20.651,13.078-20.651c1.102,0,1.323,8.592,1.323,9.914
		c0,20.98-7.201,33.039-16.017,33.039C198.885,348.816,193.448,324.367,193.448,297.936z M203.366,281.58
		c0,1.817,0.368,3.635,1.323,3.635c0.882,0,14.254-6.609,14.254-15.033c0-8.095-3.38-12.556-6.172-12.556
		C206.82,257.626,203.366,271.999,203.366,281.58z"/>
	<path fill="#023334" stroke="#000000" stroke-width="1.5" stroke-miterlimit="10" d="M258.543,346.34
		c-3.895,0.329-2.719-5.452-3.086-38.988c0-22.137,4.042-98.46,6.171-98.46h11.682c0.515,0,1.396,0.331,1.396,3.304
		c0,3.635-8.522,39.152-8.522,84.749c0,22.798,4.407,28.25,8.449,28.25c6.76,0,10.873-14.044,12.711-14.044
		c1.396,0,4.262,31.884,4.262,32.711c0,3.304-2.278,2.479-3.16,2.479H258.543z"/>
	<path fill="#023334" stroke="#000000" stroke-width="1.5" stroke-miterlimit="10" d="M312.028,277.615
		c2.132-0.827,3.821-1.652,3.821-7.104c0-8.425-3.895-12.886-7.127-12.886c-7.494,0-6.392,14.207-8.009,14.207
		c-2.352,0-4.923-6.443-4.923-13.546c0-12.225,6.099-20.155,12.858-20.155c2.351,0,12.416-0.166,16.164,22.963
		c1.543,9.581,1.688,58.481,1.688,64.262c0,7.27,0.589,11.565,0.589,17.182c0,3.47-6.907,3.801-13.445,3.801
		c-17.706,0-18.955-20.486-18.955-30.397C294.69,295.127,303.8,280.754,312.028,277.615z M316.584,306.525
		c0-5.782,0.441-12.721-3.086-12.721c-4.335,0-8.89,8.261-8.89,18.338c0,9.252,3.601,14.703,7.494,14.703
		c4.335,0,4.481-4.956,4.481-13.052V306.525z"/>
	<path fill="#023334" stroke="#000000" stroke-width="1.5" stroke-miterlimit="10" d="M356.551,346.34
		c-0.954,0-2.571,0.495-2.571-2.645c0-1.651,3.748-23.623,3.748-57.159c0-11.729-0.441-26.433-5.437-26.433
		c-2.793,0-8.523,4.131-8.523,36.841c0,19.823,2.13,45.265,2.13,47.247c0,2.313-1.249,2.148-1.982,2.148h-6.246
		c-2.718,0-3.82,2.808-3.82-40.805c0-74.837,2.571-70.211,8.229-70.211c2.57,0,5.217-0.826,5.217,2.973
		c0,1.652-0.662,3.635-0.662,5.948c0,1.652,0.368,3.139,1.103,3.139c1.249,0,4.629-6.773,9.33-6.773
		c2.058,0,10.58,0.661,10.58,44.107c0,64.926-2.277,61.622-4.775,61.622H356.551z"/>
	<path fill="#023334" stroke="#000000" stroke-width="1.5" stroke-miterlimit="10" d="M387.996,346.34
		c-8.229,0-15.429-16.356-15.429-49.727c0-37.831,11.167-58.481,17.633-58.481c1.542,0,3.159,3.799,4.188,3.799
		c1.47,0,1.69-5.947,1.69-8.59c0-13.381-1.838-19.328-1.838-25.606c0-2.313,1.838-2.313,2.572-2.313h7.642
		c3.306,0,3.012,74.01,3.012,81.774c0,3.8,0.294,59.143-2.278,59.143H387.996z M397.547,284.885c0-29.076-1.982-31.058-4.702-31.058
		c-3.158,0-10.358,9.25-10.358,39.317c0,11.399,1.91,29.076,8.155,29.076C398.576,322.22,397.547,296.778,397.547,284.885z"/>
	<path fill="#023334" stroke="#000000" stroke-width="1.5" stroke-miterlimit="10" d="M412.389,297.936
		c0-39.979,9.845-59.803,19.689-59.803c8.082,0,14.914,10.243,14.914,29.736c0,35.519-23.656,28.085-23.656,45.265
		c0,7.766,5.583,13.382,9.256,13.382c12.05,0,12.05-20.651,13.079-20.651c1.102,0,1.321,8.592,1.321,9.914
		c0,20.98-7.199,33.039-16.016,33.039C417.824,348.816,412.389,324.367,412.389,297.936z M422.307,281.58
		c0,1.817,0.367,3.635,1.322,3.635c0.882,0,14.253-6.609,14.253-15.033c0-8.095-3.378-12.556-6.171-12.556
		C425.76,257.626,422.307,271.999,422.307,281.58z"/>
	<path fill="#023334" stroke="#000000" stroke-width="1.5" stroke-miterlimit="10" d="M456.912,346.34
		c-2.719,0-4.041,5.12-4.041-49.562c0-45.76-0.589-56.002,1.47-56.168h6.097c1.103,0,2.425-0.826,2.498,2.313
		c0.146,2.478,0.294,5.618,1.765,5.618c1.101,0,2.35-2.644,3.892-5.287c1.544-2.478,3.307-5.121,5.291-5.121
		c3.747,0,6.833,7.269,6.833,16.19c0,11.563-4.188,18.502-6.392,18.502c-0.882,0,0.146-11.068-4.924-11.068
		c-6.171,0-6.612,22.302-6.612,32.214c0,32.876,2.499,46.753,2.499,49.726c-0.072,2.645-1.69,2.645-2.499,2.645H456.912z"/>
</g>
<path fill="#FFFFFF" stroke="#221F1F" stroke-width="1.5" stroke-miterlimit="10" d="M33.915,284.748c0,0-0.57,22.023,0.323,33.673
	h429.773c0,0-0.461-21.589-0.401-33.673H33.915z"/>
<g>
	<path fill="#221F1F" d="M148.492,302.231c0.086-0.216,0.323-0.426,0.711-0.632c0.388-0.204,0.734-0.307,1.036-0.307
		c0.193,0,0.269,0.076,0.226,0.227c-0.474,1.339-0.944,2.638-1.407,3.899c-0.464,1.261-0.944,2.562-1.44,3.899
		c-1.079,2.782-2.422,4.832-4.029,6.146c-1.607,1.317-3.317,1.976-5.129,1.976c-1.251,0-2.232-0.292-2.945-0.874
		c-0.711-0.583-1.068-1.284-1.068-2.104c0-0.474,0.163-0.938,0.486-1.392s0.766-0.776,1.327-0.971c0.086-0.022,0.151,0,0.195,0.066
		c0.043,0.063,0.043,0.128,0,0.191c-0.346,0.367-0.519,0.83-0.519,1.393c0,0.907,0.281,1.639,0.842,2.201
		c0.561,0.559,1.37,0.841,2.426,0.841c0.756,0,1.445-0.118,2.072-0.356c0.625-0.237,1.213-0.657,1.763-1.263
		c0.55-0.604,1.084-1.411,1.602-2.427c0.518-1.014,1.047-2.286,1.585-3.816c0.259-0.713,0.491-1.351,0.696-1.911
		c0.205-0.561,0.415-1.175,0.631-1.844c-0.41,0.646-0.831,1.24-1.262,1.779c-0.431,0.54-0.869,1.005-1.311,1.392
		c-0.442,0.39-0.868,0.69-1.278,0.906c-0.41,0.217-0.788,0.325-1.133,0.325c-0.432,0-0.745-0.131-0.938-0.39
		c-0.194-0.258-0.292-0.615-0.292-1.067c0-0.755,0.156-1.624,0.469-2.605c0.313-0.981,0.739-1.926,1.278-2.831
		c-0.237,0.151-0.453,0.29-0.647,0.421c-0.193,0.129-0.377,0.28-0.55,0.452c-0.065,0.045-0.124,0.028-0.178-0.049
		c-0.054-0.074-0.06-0.145-0.017-0.209c0.151-0.151,0.356-0.318,0.615-0.503c0.259-0.182,0.539-0.361,0.841-0.532
		c0.302-0.173,0.61-0.346,0.923-0.519c0.313-0.173,0.62-0.324,0.922-0.453c0.215,0,0.302,0.097,0.259,0.291
		c-0.345,0.432-0.653,0.911-0.922,1.44c-0.27,0.527-0.501,1.057-0.695,1.586c-0.194,0.528-0.34,1.051-0.437,1.568
		c-0.097,0.519-0.146,0.981-0.146,1.392c0,0.604,0.194,0.906,0.583,0.906c0.345,0,0.755-0.216,1.229-0.647
		c0.474-0.432,0.944-0.964,1.408-1.602c0.464-0.636,0.895-1.316,1.294-2.039C147.968,303.466,148.275,302.814,148.492,302.231z"/>
	<path fill="#221F1F" d="M161.597,301.293c0.755,0,1.315,0.227,1.683,0.68c0.366,0.452,0.55,0.981,0.55,1.585
		c0,0.842-0.167,1.624-0.501,2.346c-0.335,0.724-0.744,1.359-1.229,1.91c-0.485,0.55-1.009,0.981-1.57,1.294
		c-0.561,0.313-1.068,0.471-1.521,0.471c-0.733,0-1.289-0.223-1.666-0.665c-0.378-0.442-0.566-1.009-0.566-1.698
		c0-0.626,0.135-1.283,0.405-1.974c0.269-0.691,0.625-1.327,1.067-1.91c0.442-0.582,0.955-1.066,1.537-1.456
		C160.367,301.487,160.971,301.293,161.597,301.293z M159.817,308.573c0.668,0,1.234-0.35,1.699-1.052
		c0.464-0.7,0.695-1.666,0.695-2.896c0-0.646-0.129-1.186-0.389-1.616c-0.258-0.433-0.636-0.648-1.132-0.648
		c-0.691,0-1.251,0.335-1.683,1.004c-0.431,0.668-0.647,1.649-0.647,2.943c0,0.757,0.135,1.323,0.405,1.7
		S159.385,308.573,159.817,308.573z"/>
	<path fill="#221F1F" d="M172.048,309.578c-0.906,0-1.359-0.497-1.359-1.489c0-0.346,0.038-0.745,0.113-1.197
		c0.076-0.453,0.194-0.923,0.356-1.409c0.161-0.485,0.35-0.975,0.566-1.471c0.215-0.497,0.474-0.972,0.777-1.426
		c-0.238,0.152-0.464,0.309-0.68,0.47s-0.41,0.33-0.583,0.502c-0.065,0.045-0.125,0.028-0.178-0.049
		c-0.054-0.074-0.06-0.145-0.016-0.209c0.366-0.389,0.89-0.788,1.569-1.198c0.679-0.409,1.332-0.732,1.958-0.972
		c0.107,0,0.188,0.028,0.242,0.081c0.054,0.055,0.059,0.125,0.016,0.211c-0.69,0.905-1.245,1.889-1.666,2.944
		c-0.42,1.059-0.63,2.083-0.63,3.075c0,0.626,0.193,0.938,0.582,0.938c0.28,0,0.625-0.189,1.036-0.566
		c0.41-0.377,0.841-0.875,1.294-1.489c0.452-0.614,0.911-1.311,1.375-2.086c0.464-0.777,0.89-1.565,1.278-2.363
		c0.064-0.129,0.253-0.259,0.566-0.388c0.313-0.131,0.631-0.194,0.955-0.194c0.324,0,0.421,0.086,0.291,0.259
		c-0.302,0.563-0.565,1.085-0.792,1.57c-0.227,0.484-0.416,0.965-0.566,1.438c-0.151,0.475-0.265,0.955-0.34,1.44
		c-0.076,0.484-0.113,1.019-0.113,1.601c0,0.691,0.183,1.037,0.55,1.037s0.777-0.324,1.229-0.972c0.065-0.043,0.13-0.043,0.195,0
		c0.065,0.044,0.086,0.109,0.065,0.194c-0.367,0.562-0.771,0.988-1.213,1.278c-0.442,0.291-0.847,0.438-1.214,0.438
		c-0.906,0-1.359-0.53-1.359-1.588c0-1.099,0.194-2.188,0.583-3.267c-0.82,1.487-1.683,2.67-2.589,3.542
		C173.439,309.14,172.673,309.578,172.048,309.578z"/>
	<path fill="#221F1F" d="M190.298,302.231c0,0.324-0.033,0.69-0.097,1.1c-0.065,0.409-0.151,0.831-0.259,1.262
		c0.432-1.035,0.906-1.844,1.424-2.427c0.518-0.582,1.079-0.873,1.683-0.873c0.324,0,0.571,0.076,0.745,0.227
		c0.172,0.151,0.259,0.345,0.259,0.582c0,0.217-0.082,0.497-0.244,0.843c-0.161,0.344-0.296,0.581-0.403,0.711
		c-0.044,0.021-0.087,0.016-0.13-0.017c-0.043-0.032-0.065-0.07-0.065-0.113c0-0.152-0.06-0.28-0.178-0.39
		c-0.119-0.106-0.296-0.161-0.534-0.161c-0.755,0-1.44,0.514-2.055,1.537c-0.615,1.025-1.182,2.497-1.699,4.419
		c-0.022,0.106-0.097,0.198-0.227,0.274c-0.129,0.074-0.275,0.141-0.436,0.193c-0.162,0.056-0.33,0.098-0.501,0.129
		c-0.172,0.033-0.324,0.051-0.454,0.051c-0.237,0-0.302-0.131-0.193-0.39c0.193-0.452,0.383-0.943,0.565-1.472
		c0.184-0.529,0.351-1.063,0.502-1.604c0.151-0.538,0.28-1.062,0.388-1.568s0.194-0.977,0.259-1.409
		c0.043-0.321,0.06-0.57,0.049-0.742c-0.011-0.173-0.104-0.259-0.276-0.259c-0.215,0-0.436,0.092-0.663,0.273
		c-0.227,0.185-0.437,0.416-0.631,0.697c-0.086,0.063-0.167,0.069-0.243,0.017c-0.076-0.056-0.091-0.125-0.048-0.211
		c0.129-0.173,0.285-0.351,0.469-0.533c0.183-0.185,0.388-0.357,0.615-0.52c0.226-0.161,0.463-0.295,0.712-0.403
		c0.248-0.108,0.501-0.162,0.76-0.162c0.345,0,0.583,0.081,0.712,0.242C190.233,301.697,190.298,301.93,190.298,302.231z"/>
	<path fill="#221F1F" d="M209.389,309.285c0.971-3.71,2.087-7.054,3.349-10.031c1.262-2.977,2.594-5.511,3.996-7.604
		c1.402-2.094,2.821-3.706,4.255-4.838c1.435-1.134,2.799-1.7,4.094-1.7c0.539,0,0.965,0.125,1.277,0.372
		c0.313,0.25,0.529,0.552,0.647,0.906c0.119,0.356,0.135,0.74,0.049,1.149c-0.086,0.41-0.249,0.777-0.485,1.1
		c-0.064,0.065-0.129,0.087-0.194,0.065c-0.065-0.021-0.097-0.074-0.097-0.162c0.107-0.431-0.011-0.841-0.356-1.229
		c-0.345-0.388-0.896-0.583-1.65-0.583c-1.165,0-2.271,0.314-3.317,0.939c-1.046,0.626-2.065,1.666-3.058,3.123
		c-0.993,1.455-1.963,3.387-2.912,5.79c-0.95,2.407-1.921,5.4-2.913,8.979c0.324-0.58,0.696-1.131,1.117-1.648
		c0.42-0.519,0.878-0.97,1.375-1.358c0.496-0.39,1.025-0.697,1.586-0.923c0.56-0.227,1.142-0.34,1.747-0.34
		c0.259,0,0.447,0.063,0.566,0.194c0.119,0.129,0.178,0.28,0.178,0.452c0,0.281-0.098,0.595-0.292,0.938
		c-0.453,0.799-0.82,1.619-1.101,2.46c-0.28,0.841-0.42,1.607-0.42,2.298c0,0.303,0.033,0.55,0.097,0.744
		c0.065,0.193,0.183,0.291,0.356,0.291c0.215,0,0.453-0.113,0.712-0.34c0.259-0.227,0.474-0.479,0.647-0.761
		c0.064-0.043,0.129-0.038,0.194,0.017c0.065,0.054,0.085,0.113,0.065,0.177c-0.281,0.476-0.675,0.896-1.181,1.263
		c-0.507,0.366-0.966,0.552-1.375,0.552c-0.367,0-0.669-0.104-0.907-0.31c-0.237-0.204-0.355-0.555-0.355-1.051
		c0-0.389,0.037-0.803,0.113-1.246c0.075-0.442,0.173-0.878,0.292-1.311c0.118-0.432,0.259-0.856,0.421-1.277
		c0.162-0.422,0.339-0.805,0.533-1.149c0.108-0.26,0.162-0.441,0.162-0.55c0-0.194-0.108-0.291-0.323-0.291
		c-0.41,0-0.852,0.155-1.327,0.469c-0.475,0.313-0.938,0.755-1.391,1.326c-0.454,0.573-0.89,1.258-1.311,2.056
		c-0.421,0.799-0.782,1.683-1.083,2.652c-0.043,0.151-0.217,0.302-0.518,0.453c-0.303,0.151-0.637,0.229-1.003,0.229
		C209.433,309.578,209.345,309.48,209.389,309.285z"/>
	<path fill="#221F1F" d="M230.39,301.293c0.755,0,1.315,0.227,1.683,0.68c0.366,0.452,0.55,0.981,0.55,1.585
		c0,0.842-0.167,1.624-0.502,2.346c-0.335,0.724-0.745,1.359-1.23,1.91c-0.485,0.55-1.008,0.981-1.569,1.294
		c-0.562,0.313-1.067,0.471-1.521,0.471c-0.733,0-1.289-0.223-1.666-0.665c-0.378-0.442-0.567-1.009-0.567-1.698
		c0-0.626,0.135-1.283,0.405-1.974c0.269-0.691,0.626-1.327,1.068-1.91c0.441-0.582,0.955-1.066,1.537-1.456
		C229.161,301.487,229.764,301.293,230.39,301.293z M228.611,308.573c0.668,0,1.234-0.35,1.699-1.052
		c0.463-0.7,0.695-1.666,0.695-2.896c0-0.646-0.128-1.186-0.388-1.616c-0.258-0.433-0.637-0.648-1.132-0.648
		c-0.691,0-1.251,0.335-1.683,1.004c-0.432,0.668-0.646,1.649-0.646,2.943c0,0.757,0.134,1.323,0.404,1.7
		C227.828,308.385,228.179,308.573,228.611,308.573z"/>
	<path fill="#221F1F" d="M251.002,302.781c0-0.454-0.162-0.68-0.485-0.68c-0.647,0-1.414,0.598-2.298,1.796
		c-0.884,1.197-1.704,2.907-2.459,5.129c-0.043,0.13-0.221,0.253-0.534,0.372c-0.312,0.118-0.608,0.18-0.89,0.18
		c-0.259,0-0.356-0.098-0.291-0.293c0.128-0.389,0.306-0.874,0.533-1.456s0.442-1.18,0.647-1.796
		c0.205-0.614,0.383-1.197,0.534-1.747c0.151-0.55,0.227-0.976,0.227-1.277c0-0.584-0.184-0.874-0.55-0.874
		c-0.562,0-1.267,0.577-2.119,1.73c-0.853,1.154-1.678,2.876-2.476,5.161c-0.043,0.13-0.216,0.253-0.518,0.372
		c-0.303,0.118-0.572,0.18-0.808,0.18c-0.109,0-0.195-0.021-0.26-0.066c-0.064-0.042-0.076-0.119-0.033-0.227
		c0.173-0.475,0.356-0.998,0.55-1.568c0.195-0.572,0.389-1.15,0.583-1.731c0.194-0.583,0.373-1.154,0.534-1.716
		c0.162-0.56,0.308-1.09,0.438-1.585c0.064-0.388,0-0.583-0.194-0.583c-0.173,0-0.378,0.119-0.615,0.356
		c-0.237,0.237-0.475,0.517-0.712,0.842c-0.064,0.044-0.129,0.038-0.194-0.017c-0.064-0.053-0.076-0.114-0.032-0.178
		c0.323-0.497,0.712-0.922,1.165-1.278c0.453-0.357,0.939-0.534,1.457-0.534c0.344,0,0.577,0.108,0.695,0.323
		c0.118,0.216,0.146,0.476,0.081,0.777c-0.086,0.474-0.173,0.873-0.259,1.196c-0.086,0.324-0.205,0.691-0.356,1.101
		c0.561-0.992,1.181-1.807,1.86-2.443c0.68-0.636,1.408-0.954,2.185-0.954c0.388,0,0.685,0.108,0.89,0.323
		c0.205,0.216,0.308,0.476,0.308,0.777c0,0.841-0.151,1.693-0.453,2.556c0.69-1.187,1.364-2.091,2.021-2.718
		c0.658-0.625,1.451-0.938,2.379-0.938c0.431,0,0.739,0.113,0.923,0.34c0.183,0.226,0.274,0.459,0.274,0.694
		c0,0.368-0.081,0.772-0.243,1.214c-0.161,0.443-0.345,0.905-0.549,1.392c-0.206,0.486-0.389,0.971-0.551,1.456
		c-0.161,0.486-0.243,0.955-0.243,1.408c0,0.54,0.173,0.809,0.519,0.809c0.344,0,0.809-0.355,1.391-1.067
		c0.064-0.043,0.123-0.032,0.178,0.032c0.053,0.065,0.059,0.141,0.016,0.227c-0.433,0.54-0.875,0.972-1.327,1.294
		c-0.453,0.324-0.896,0.487-1.327,0.487c-0.712,0-1.068-0.41-1.068-1.231c0-0.518,0.076-1.04,0.227-1.569
		c0.15-0.529,0.317-1.036,0.502-1.521c0.182-0.484,0.349-0.942,0.5-1.375C250.927,303.451,251.002,303.084,251.002,302.781z"/>
	<path fill="#221F1F" d="M266.565,302.911c0,1.229-1.628,2.071-4.886,2.523c-0.021,0.217-0.037,0.431-0.047,0.647
		c-0.012,0.217-0.018,0.442-0.018,0.68c0,0.562,0.131,0.992,0.389,1.293c0.26,0.304,0.669,0.454,1.229,0.454
		c0.41,0,0.831-0.119,1.264-0.357c0.431-0.235,0.775-0.538,1.035-0.904c0.085-0.044,0.15-0.026,0.193,0.048
		c0.042,0.076,0.054,0.156,0.032,0.243c-0.433,0.561-0.976,1.04-1.634,1.439c-0.659,0.399-1.364,0.601-2.12,0.601
		c-0.754,0-1.299-0.19-1.633-0.567c-0.336-0.378-0.502-0.912-0.502-1.603c0-0.667,0.14-1.364,0.421-2.087
		c0.279-0.723,0.641-1.385,1.083-1.99c0.443-0.604,0.949-1.094,1.521-1.473c0.57-0.376,1.148-0.565,1.73-0.565
		c0.583,0,1.052,0.167,1.408,0.502C266.389,302.129,266.565,302.501,266.565,302.911z M263.753,302.135
		c-0.498,0-0.924,0.23-1.279,0.694c-0.356,0.464-0.599,1.183-0.728,2.153c1.035-0.108,1.8-0.309,2.297-0.599
		c0.497-0.292,0.744-0.652,0.744-1.084c0-0.325-0.097-0.601-0.29-0.826C264.303,302.247,264.055,302.135,263.753,302.135z"/>
	<path fill="#221F1F" d="M288.83,304.205c-0.131,0.044-0.194-0.01-0.194-0.161c0.15-0.454,0.123-0.853-0.08-1.198
		c-0.206-0.345-0.579-0.519-1.116-0.519c-0.692,0-1.248,0.433-1.669,1.295c-0.419,0.863-0.63,1.985-0.63,3.366
		c0,1.014,0.399,1.521,1.196,1.521c0.367,0,0.772-0.134,1.214-0.404c0.442-0.27,0.848-0.62,1.214-1.053
		c0.086-0.043,0.161-0.032,0.228,0.033c0.063,0.065,0.074,0.141,0.032,0.227c-0.541,0.69-1.145,1.241-1.813,1.649
		c-0.669,0.412-1.381,0.617-2.137,0.617c-0.474,0-0.872-0.168-1.197-0.502c-0.322-0.335-0.484-0.805-0.484-1.409
		c0-0.754,0.155-1.515,0.469-2.281c0.313-0.765,0.717-1.449,1.213-2.055c0.496-0.604,1.036-1.094,1.619-1.473
		c0.582-0.376,1.154-0.565,1.715-0.565c0.495,0,0.884,0.14,1.164,0.422c0.281,0.278,0.421,0.593,0.421,0.937
		c0,0.13-0.037,0.271-0.112,0.421c-0.076,0.151-0.173,0.301-0.292,0.453c-0.119,0.151-0.248,0.291-0.389,0.42
		C289.062,304.075,288.938,304.162,288.83,304.205z"/>
	<path fill="#221F1F" d="M297.016,303.558c-0.064,0.045-0.119,0.028-0.161-0.049c-0.043-0.074-0.055-0.145-0.033-0.209
		c0.798-0.648,1.909-1.316,3.332-2.007c0.174,0,0.26,0.097,0.26,0.291c-0.28,0.496-0.556,1.035-0.825,1.618
		c-0.269,0.582-0.507,1.159-0.711,1.73c-0.204,0.573-0.372,1.124-0.502,1.651c-0.129,0.528-0.194,0.966-0.194,1.311
		c0,0.432,0.15,0.646,0.454,0.646c0.237,0,0.468-0.101,0.694-0.308c0.228-0.204,0.49-0.47,0.795-0.792
		c0.042-0.044,0.095-0.038,0.161,0.017c0.063,0.054,0.074,0.135,0.031,0.242c-0.474,0.561-0.945,1.014-1.407,1.358
		c-0.466,0.346-0.912,0.52-1.344,0.52c-0.754,0-1.133-0.357-1.133-1.069c0-0.388,0.06-0.847,0.178-1.376
		c0.12-0.527,0.281-1.067,0.486-1.617s0.432-1.089,0.681-1.618c0.247-0.528,0.499-0.986,0.759-1.375
		c-0.237,0.129-0.502,0.292-0.792,0.486C297.453,303.202,297.21,303.386,297.016,303.558z M300.479,299.9
		c-0.065,0.066-0.135,0.066-0.211,0c-0.075-0.063-0.135-0.154-0.177-0.273c-0.044-0.119-0.065-0.248-0.065-0.39
		c0-0.139,0.032-0.264,0.099-0.372c0.235-0.302,0.586-0.685,1.051-1.148c0.462-0.463,0.942-0.856,1.44-1.181
		c0.043-0.022,0.097-0.005,0.161,0.047c0.064,0.056,0.086,0.104,0.064,0.147c-0.454,0.41-0.886,0.899-1.295,1.472
		S300.78,299.341,300.479,299.9z"/>
	<path fill="#221F1F" d="M316.365,307.312c0.043-0.043,0.098-0.038,0.162,0.017c0.064,0.053,0.086,0.123,0.064,0.21
		c-0.389,0.54-0.836,1.015-1.343,1.423c-0.507,0.412-1.009,0.617-1.504,0.617c-0.367,0-0.653-0.12-0.858-0.357
		s-0.307-0.55-0.307-0.938c0-0.755,0.135-1.575,0.404-2.46c0.269-0.883,0.631-1.778,1.085-2.687
		c0.064-0.149,0.096-0.312,0.096-0.484c0-0.216-0.096-0.324-0.29-0.324c-0.8,0-1.684,0.546-2.654,1.635
		c-0.971,1.09-1.867,2.821-2.686,5.194c-0.022,0.064-0.093,0.123-0.21,0.178c-0.118,0.054-0.254,0.097-0.404,0.129
		c-0.152,0.033-0.304,0.061-0.454,0.081c-0.15,0.021-0.269,0.034-0.355,0.034c-0.108,0-0.189-0.021-0.242-0.066
		c-0.056-0.042-0.061-0.119-0.017-0.227c0.366-0.927,0.738-1.947,1.116-3.058c0.376-1.111,0.706-2.228,0.987-3.35
		c0.064-0.215,0.075-0.372,0.032-0.47c-0.043-0.096-0.121-0.144-0.228-0.144c-0.238,0-0.464,0.101-0.679,0.307
		c-0.216,0.206-0.411,0.426-0.581,0.663c-0.065,0.043-0.127,0.032-0.18-0.032c-0.055-0.066-0.07-0.13-0.048-0.193
		c0.107-0.15,0.253-0.324,0.436-0.519c0.184-0.193,0.394-0.384,0.631-0.566c0.238-0.182,0.485-0.333,0.745-0.454
		c0.259-0.118,0.519-0.177,0.776-0.177c0.367,0,0.609,0.113,0.729,0.34c0.117,0.226,0.146,0.502,0.08,0.825
		c-0.109,0.474-0.223,0.923-0.34,1.343c-0.118,0.421-0.264,0.89-0.437,1.407c0.258-0.475,0.576-0.944,0.953-1.407
		c0.378-0.463,0.799-0.885,1.264-1.262c0.463-0.378,0.964-0.681,1.504-0.906c0.538-0.227,1.111-0.34,1.715-0.34
		c0.259,0,0.458,0.063,0.599,0.194c0.14,0.129,0.211,0.28,0.211,0.452c0,0.303-0.075,0.572-0.226,0.81
		c-0.454,0.819-0.838,1.666-1.15,2.54c-0.313,0.874-0.469,1.656-0.469,2.347c0,0.56,0.184,0.841,0.55,0.841
		c0.237,0,0.475-0.097,0.711-0.291C315.793,307.99,316.064,307.7,316.365,307.312z"/>
	<path fill="#221F1F" d="M329.795,302.911c0,1.229-1.629,2.071-4.888,2.523c-0.021,0.217-0.038,0.431-0.048,0.647
		s-0.016,0.442-0.016,0.68c0,0.562,0.131,0.992,0.388,1.293c0.259,0.304,0.669,0.454,1.229,0.454c0.41,0,0.83-0.119,1.263-0.357
		c0.432-0.235,0.777-0.538,1.036-0.904c0.085-0.044,0.15-0.026,0.193,0.048c0.042,0.076,0.055,0.156,0.033,0.243
		c-0.434,0.561-0.977,1.04-1.636,1.439c-0.658,0.399-1.363,0.601-2.119,0.601c-0.754,0-1.3-0.19-1.633-0.567
		c-0.335-0.378-0.502-0.912-0.502-1.603c0-0.667,0.14-1.364,0.421-2.087c0.278-0.723,0.641-1.385,1.083-1.99
		c0.443-0.604,0.949-1.094,1.521-1.473c0.571-0.376,1.149-0.565,1.731-0.565c0.583,0,1.052,0.167,1.408,0.502
		C329.616,302.129,329.795,302.501,329.795,302.911z M326.979,302.135c-0.497,0-0.923,0.23-1.277,0.694
		c-0.357,0.464-0.601,1.183-0.728,2.153c1.034-0.108,1.799-0.309,2.296-0.599c0.496-0.292,0.744-0.652,0.744-1.084
		c0-0.325-0.097-0.601-0.291-0.826C327.529,302.247,327.281,302.135,326.979,302.135z"/>
	<path fill="#221F1F" d="M347.851,302.781c0-0.454-0.161-0.68-0.485-0.68c-0.646,0-1.414,0.598-2.297,1.796
		c-0.885,1.197-1.705,2.907-2.46,5.129c-0.043,0.13-0.222,0.253-0.534,0.372c-0.313,0.118-0.608,0.18-0.89,0.18
		c-0.26,0-0.356-0.098-0.291-0.293c0.129-0.389,0.307-0.874,0.534-1.456c0.226-0.582,0.442-1.18,0.646-1.796
		c0.205-0.614,0.384-1.197,0.534-1.747c0.151-0.55,0.228-0.976,0.228-1.277c0-0.584-0.186-0.874-0.552-0.874
		c-0.562,0-1.267,0.577-2.118,1.73c-0.854,1.154-1.679,2.876-2.477,5.161c-0.044,0.13-0.216,0.253-0.517,0.372
		c-0.304,0.118-0.573,0.18-0.809,0.18c-0.109,0-0.194-0.021-0.26-0.066c-0.064-0.042-0.076-0.119-0.033-0.227
		c0.174-0.475,0.357-0.998,0.55-1.568c0.195-0.572,0.39-1.15,0.584-1.731c0.194-0.583,0.371-1.154,0.534-1.716
		c0.161-0.56,0.307-1.09,0.436-1.585c0.063-0.388,0-0.583-0.194-0.583c-0.171,0-0.377,0.119-0.614,0.356
		c-0.238,0.237-0.475,0.517-0.712,0.842c-0.064,0.044-0.129,0.038-0.195-0.017c-0.063-0.053-0.076-0.114-0.03-0.178
		c0.322-0.497,0.711-0.922,1.164-1.278c0.453-0.357,0.938-0.534,1.455-0.534c0.346,0,0.579,0.108,0.697,0.323
		c0.117,0.216,0.146,0.476,0.081,0.777c-0.087,0.474-0.174,0.873-0.26,1.196c-0.086,0.324-0.205,0.691-0.355,1.101
		c0.56-0.992,1.18-1.807,1.86-2.443c0.681-0.636,1.407-0.954,2.183-0.954c0.39,0,0.687,0.108,0.892,0.323
		c0.203,0.216,0.308,0.476,0.308,0.777c0,0.841-0.152,1.693-0.454,2.556c0.69-1.187,1.364-2.091,2.022-2.718
		c0.659-0.625,1.451-0.938,2.379-0.938c0.432,0,0.739,0.113,0.922,0.34c0.184,0.226,0.275,0.459,0.275,0.694
		c0,0.368-0.081,0.772-0.242,1.214c-0.162,0.443-0.346,0.905-0.55,1.392c-0.207,0.486-0.388,0.971-0.551,1.456
		c-0.161,0.486-0.241,0.955-0.241,1.408c0,0.54,0.17,0.809,0.516,0.809s0.809-0.355,1.392-1.067
		c0.065-0.043,0.123-0.032,0.179,0.032c0.053,0.065,0.06,0.141,0.017,0.227c-0.432,0.54-0.874,0.972-1.327,1.294
		c-0.454,0.324-0.895,0.487-1.327,0.487c-0.712,0-1.067-0.41-1.067-1.231c0-0.518,0.074-1.04,0.227-1.569
		c0.15-0.529,0.317-1.036,0.502-1.521c0.182-0.484,0.35-0.942,0.501-1.375C347.774,303.451,347.851,303.084,347.851,302.781z"/>
	<path fill="#221F1F" d="M365.583,307.538c0.043-0.043,0.097-0.043,0.161,0c0.064,0.042,0.086,0.107,0.064,0.194
		c-0.389,0.561-0.818,1.009-1.294,1.344c-0.475,0.334-0.928,0.502-1.358,0.502c-0.498,0-0.814-0.352-0.955-1.053
		s-0.071-1.537,0.209-2.508c-0.581,0.928-1.212,1.721-1.891,2.378c-0.68,0.659-1.397,1.052-2.153,1.183
		c-0.517,0-0.917-0.238-1.196-0.713c-0.281-0.476-0.423-1.024-0.423-1.65c0-0.712,0.175-1.418,0.52-2.12
		c0.346-0.7,0.804-1.332,1.376-1.893c0.571-0.561,1.208-1.019,1.908-1.375c0.701-0.357,1.407-0.534,2.119-0.534
		c0.755,0,1.349,0.184,1.779,0.549c0.217-0.149,0.49-0.278,0.826-0.387c0.334-0.108,0.631-0.162,0.89-0.162
		c0.086,0,0.129,0.054,0.129,0.162c-0.495,0.604-0.922,1.267-1.277,1.988c-0.354,0.724-0.631,1.414-0.826,2.072
		c-0.193,0.658-0.312,1.246-0.354,1.764c-0.044,0.518,0,0.872,0.128,1.067c0.108,0.13,0.292,0.168,0.551,0.114
		S365.131,308.099,365.583,307.538z M359.369,308.38c0.26,0,0.576-0.162,0.955-0.485c0.378-0.324,0.771-0.755,1.182-1.295
		c0.409-0.539,0.814-1.144,1.214-1.812c0.397-0.669,0.748-1.349,1.052-2.039c-0.087-0.28-0.288-0.507-0.6-0.679
		c-0.314-0.173-0.674-0.259-1.084-0.259c-0.495,0-0.96,0.124-1.391,0.372c-0.433,0.247-0.805,0.594-1.117,1.033
		c-0.313,0.442-0.563,0.972-0.742,1.588c-0.187,0.614-0.277,1.289-0.277,2.021c0,0.475,0.082,0.853,0.243,1.134
		C358.966,308.239,359.153,308.38,359.369,308.38z"/>
</g>
<line fill="none" stroke="#221F1F" stroke-width="1.5" stroke-miterlimit="10" x1="33.834" y1="288.644" x2="216.843" y2="288.644"/>
<line fill="none" stroke="#221F1F" stroke-width="1.5" stroke-miterlimit="10" x1="147.598" y1="313.892" x2="464.011" y2="313.892"/>
<ellipse transform="matrix(0.9966 0.0828 -0.0828 0.9966 19.1249 -14.3739)" opacity="0.6" fill="#023334" stroke="#000000" stroke-width="1.5" stroke-miterlimit="10" cx="182.781" cy="223.286" rx="6.148" ry="9.06"/>
</svg>
